<mxfile host="app.diagrams.net" modified="2024-04-11T09:50:08.827Z" agent="Mozilla/5.0 (Windows NT 10.0; Win64; x64) AppleWebKit/537.36 (KHTML, like Gecko) Chrome/123.0.0.0 Safari/537.36" etag="CN6avNUl6s4Vm5Er65UF" version="24.2.3" type="github">
  <diagram name="第 1 页" id="HEr5mST-TswALgU_nNMG">
    <mxGraphModel dx="977" dy="489" grid="1" gridSize="10" guides="1" tooltips="1" connect="1" arrows="1" fold="1" page="1" pageScale="1" pageWidth="827" pageHeight="1169" math="0" shadow="0">
      <root>
        <mxCell id="0" />
        <mxCell id="1" parent="0" />
        <mxCell id="wiV7KyU_HIQYPwCCVB8a-1" value="" style="rounded=0;whiteSpace=wrap;html=1;" parent="1" vertex="1">
          <mxGeometry x="80" y="40" width="190" height="200" as="geometry" />
        </mxCell>
        <mxCell id="wiV7KyU_HIQYPwCCVB8a-2" value="" style="rounded=0;whiteSpace=wrap;html=1;" parent="1" vertex="1">
          <mxGeometry x="90" y="110" width="40" height="60" as="geometry" />
        </mxCell>
        <mxCell id="wiV7KyU_HIQYPwCCVB8a-3" value="" style="ellipse;whiteSpace=wrap;html=1;aspect=fixed;" parent="1" vertex="1">
          <mxGeometry x="100" y="40" width="30" height="30" as="geometry" />
        </mxCell>
        <mxCell id="wiV7KyU_HIQYPwCCVB8a-4" value="" style="endArrow=none;html=1;rounded=0;entryX=1;entryY=0.25;entryDx=0;entryDy=0;exitX=0;exitY=0.25;exitDx=0;exitDy=0;" parent="1" source="wiV7KyU_HIQYPwCCVB8a-1" target="wiV7KyU_HIQYPwCCVB8a-1" edge="1">
          <mxGeometry width="50" height="50" relative="1" as="geometry">
            <mxPoint x="75" y="120" as="sourcePoint" />
            <mxPoint x="125" y="70" as="targetPoint" />
          </mxGeometry>
        </mxCell>
        <mxCell id="wiV7KyU_HIQYPwCCVB8a-9" value="" style="rounded=0;whiteSpace=wrap;html=1;" parent="1" vertex="1">
          <mxGeometry x="100" y="120" width="40" height="60" as="geometry" />
        </mxCell>
        <mxCell id="wiV7KyU_HIQYPwCCVB8a-10" value="" style="rounded=0;whiteSpace=wrap;html=1;" parent="1" vertex="1">
          <mxGeometry x="110" y="130" width="40" height="60" as="geometry" />
        </mxCell>
        <mxCell id="wiV7KyU_HIQYPwCCVB8a-11" value="" style="rounded=0;whiteSpace=wrap;html=1;" parent="1" vertex="1">
          <mxGeometry x="120" y="140" width="40" height="60" as="geometry" />
        </mxCell>
        <mxCell id="H3HyMd9qw4zrakK1pe5z-1" value="" style="ellipse;whiteSpace=wrap;html=1;" vertex="1" parent="1">
          <mxGeometry x="340" y="100" width="120" height="80" as="geometry" />
        </mxCell>
      </root>
    </mxGraphModel>
  </diagram>
</mxfile>
